<?xml version="1.0" standalone="no"?>
<!DOCTYPE svg PUBLIC "-//W3C//DTD SVG 20010904//EN"
 "http://www.w3.org/TR/2001/REC-SVG-20010904/DTD/svg10.dtd">
<svg version="1.0" xmlns="http://www.w3.org/2000/svg"
 width="502.000000pt" height="290.000000pt" viewBox="0 0 502.000000 290.000000"
 preserveAspectRatio="xMidYMid meet">

<g transform="translate(0.000000,290.000000) scale(0.100000,-0.100000)"
fill="#000000" stroke="none">
<path d="M4165 2827 l-100 -63 -3 -229 -2 -230 100 -62 100 -63 242 0 243 0
92 56 c50 30 97 61 103 68 7 9 9 88 8 236 l-3 223 -103 63 -103 64 -237 0
-237 -1 -100 -62z m670 -25 l80 -49 2 -219 3 -219 -62 -35 c-34 -19 -65 -34
-70 -32 -5 1 -7 -2 -4 -7 3 -5 -2 -12 -12 -17 -18 -8 -494 -12 -485 -4 2 3
102 8 221 11 l217 6 -217 -1 c-137 -1 -214 2 -208 8 26 26 4 56 -42 56 -11 0
-33 13 -49 29 l-29 29 0 180 c0 206 1 209 84 239 40 15 49 23 52 45 2 21 -1
25 -13 21 -9 -4 -14 -2 -11 3 4 5 105 8 235 8 l228 -2 80 -50z"/>
<path d="M4646 2808 c3 -4 9 -8 15 -8 5 0 9 4 9 8 0 5 -7 9 -15 9 -8 0 -12 -4
-9 -9z"/>
<path d="M4750 2754 c-8 -19 -15 -25 -30 -21 -11 3 -20 1 -20 -4 0 -5 -11 -9
-25 -9 -14 0 -25 5 -25 12 0 9 -3 9 -12 0 -8 -8 -62 -12 -177 -12 -111 0 -161
4 -151 10 20 13 4 13 -21 0 -18 -10 -19 -23 -19 -201 0 -168 2 -190 15 -185
10 4 19 -2 26 -17 l10 -22 -5 23 -4 23 208 -2 c115 -2 207 -6 204 -11 -3 -4 0
-8 5 -8 6 0 11 -7 11 -15 0 -26 40 -16 71 17 l29 32 0 172 c0 158 -2 173 -21
198 -11 14 -29 31 -40 36 -16 9 -21 7 -29 -16z m-32 -221 l-3 -158 -210 0
-210 0 -3 158 -3 157 216 0 216 0 -3 -157z"/>
<path d="M4305 2760 c-3 -5 -1 -10 4 -10 6 0 11 5 11 10 0 6 -2 10 -4 10 -3 0
-8 -4 -11 -10z"/>
<path d="M2703 2860 c-293 -43 -568 -259 -671 -528 -24 -60 -26 -81 -27 -208
l0 -141 44 -87 c88 -180 268 -310 454 -331 l52 -6 -65 24 c-107 39 -189 99
-262 190 -40 51 -50 79 -20 56 15 -13 16 -12 3 3 -7 10 -17 15 -22 12 -12 -7
-46 73 -53 123 l-6 38 12 -35 c7 -19 19 -41 27 -48 9 -8 10 -11 4 -7 -18 9
-16 -3 6 -30 l18 -24 13 24 c7 13 16 22 20 20 11 -7 34 24 26 33 -4 4 -21 -8
-37 -26 -16 -18 -29 -26 -29 -19 0 26 58 67 95 67 26 0 35 4 35 17 0 13 3 14
12 5 18 -18 26 -15 43 18 14 27 14 30 0 30 -8 0 -15 7 -15 15 0 8 5 15 11 15
6 0 9 12 7 28 -2 15 -8 26 -15 24 -15 -2 -18 15 -4 20 5 2 12 28 15 58 4 30
11 59 16 64 27 27 10 36 -69 36 -67 0 -80 3 -85 18 -2 9 -8 28 -11 41 -4 13
-3 21 1 18 5 -3 10 6 11 20 0 16 -2 21 -7 14 -5 -10 -9 -9 -13 3 -4 9 -3 16 2
16 4 0 13 11 19 24 6 14 41 57 79 96 145 154 302 235 507 260 136 18 541 8
620 -14 186 -52 335 -189 393 -361 l13 -40 -5 40 c-8 59 -69 176 -122 235 -55
61 -144 124 -222 155 -114 47 -190 55 -478 54 -147 -1 -291 -5 -320 -9z m-488
-518 c0 -20 5 -43 12 -50 7 -7 13 -19 13 -25 -1 -7 -9 -2 -19 10 l-19 23 -15
-23 c-14 -19 -16 -19 -16 -4 -1 9 3 17 8 17 15 0 32 58 19 66 -6 4 -8 3 -5 -3
4 -6 -2 -22 -13 -34 -26 -31 -25 -20 2 36 24 49 35 45 33 -13z m-55 -91 c0 -6
-4 -13 -10 -16 -5 -3 -10 1 -10 9 0 9 5 16 10 16 6 0 10 -4 10 -9z m204 0 c3
-5 -1 -14 -9 -21 -13 -10 -15 -9 -15 9 0 21 14 28 24 12z m-227 -63 c-3 -7 -5
-2 -5 12 0 14 2 19 5 13 2 -7 2 -19 0 -25z m20 -15 c-3 -10 -5 -2 -5 17 0 19
2 27 5 18 2 -10 2 -26 0 -35z m-26 -93 l-8 -75 -2 85 c0 52 3 80 8 75 6 -6 6
-41 2 -85z m26 18 c-3 -8 -6 -5 -6 6 -1 11 2 17 5 13 3 -3 4 -12 1 -19z"/>
<path d="M90 2840 c0 -11 -67 -409 -76 -452 l-6 -28 79 0 c58 0 85 4 103 17
43 30 60 47 60 60 0 7 7 13 15 13 17 0 61 41 57 53 -1 5 2 5 8 2 6 -4 22 5 35
19 13 14 30 26 37 26 8 1 4 8 -9 19 -12 10 -19 21 -16 25 10 10 -36 48 -49 40
-8 -5 -9 -2 -5 9 4 11 -4 28 -23 47 -17 17 -30 34 -30 38 0 4 -9 14 -20 22
-11 8 -20 20 -20 26 0 8 237 12 886 16 926 6 903 5 904 46 0 9 -200 12 -965
12 -632 0 -965 -3 -965 -10z m127 -162 c-3 -7 -5 -2 -5 12 0 14 2 19 5 13 2
-7 2 -19 0 -25z m2 -93 c5 2 6 -8 3 -23 l-6 -27 -7 25 c-4 14 -7 19 -8 11 -1
-8 -3 -12 -6 -10 -2 3 -1 16 2 29 6 20 8 21 11 7 2 -9 7 -15 11 -12z m126 -13
c-3 -3 -11 0 -18 7 -9 10 -8 11 6 5 10 -3 15 -9 12 -12z m-114 -53 c-5 -13
-10 -19 -10 -12 -1 15 10 45 15 40 3 -2 0 -15 -5 -28z m-21 -34 c0 -5 -5 -3
-10 5 -5 8 -10 20 -10 25 0 6 5 3 10 -5 5 -8 10 -19 10 -25z m-30 -52 c-11
-17 -11 -17 -6 0 3 10 7 26 7 35 1 15 2 15 6 0 2 -10 -1 -25 -7 -35z m47 15
c-3 -7 -5 -2 -5 12 0 14 2 19 5 13 2 -7 2 -19 0 -25z"/>
<path d="M992 2480 c0 -14 2 -19 5 -12 2 6 2 18 0 25 -3 6 -5 1 -5 -13z"/>
<path d="M2285 2489 c-4 -6 -5 -12 -2 -15 2 -3 7 2 10 11 7 17 1 20 -8 4z"/>
<path d="M961 2454 c0 -11 3 -14 6 -6 3 7 2 16 -1 19 -3 4 -6 -2 -5 -13z"/>
<path d="M1015 2458 c-2 -7 -6 -38 -8 -68 l-3 -55 -2 58 c-2 61 -20 81 -20 21
0 -19 -3 -38 -6 -41 -3 -4 -6 7 -6 23 0 16 -4 24 -8 19 -6 -9 -39 -25 -102
-49 -22 -9 -54 -30 -62 -41 -5 -7 -8 -7 -8 0 0 6 -22 9 -53 7 l-53 -4 -52
-326 c-29 -180 -86 -540 -127 -800 -41 -259 -75 -477 -75 -482 0 -6 102 -10
284 -10 296 0 296 0 296 41 0 5 -101 9 -241 9 -216 0 -241 2 -235 16 3 9 6 19
6 22 0 4 5 0 10 -8 8 -13 10 -12 10 3 0 9 5 17 11 17 6 0 28 17 49 38 21 20
51 47 67 60 15 13 44 38 63 56 19 18 38 32 42 32 12 -1 37 39 38 60 3 55 8 92
14 103 4 6 4 20 1 31 -4 11 -2 20 4 20 15 0 14 37 -1 44 -9 3 -8 8 5 16 14 9
17 19 12 37 -3 14 -1 31 6 40 10 12 10 16 -2 24 -8 5 -9 9 -2 9 6 0 17 25 23
56 9 45 9 62 -1 80 -7 13 -9 27 -6 31 4 3 7 1 7 -5 0 -7 5 -12 11 -12 7 0 9
11 6 29 -3 16 -1 33 6 40 9 9 9 16 -1 31 -10 17 -10 20 4 20 11 0 15 8 13 28
-2 15 -1 32 2 37 4 6 7 34 7 63 1 30 6 60 13 68 6 8 12 39 13 69 0 30 4 55 9
55 4 0 7 7 7 16 0 9 -5 12 -12 8 -8 -5 -7 0 2 11 8 10 14 19 12 19 -2 1 0 9 3
19 4 9 2 24 -5 32 -10 12 -9 15 4 15 19 0 23 45 5 56 -8 5 -6 10 5 16 21 12
22 50 1 42 -8 -4 -15 -1 -15 5 0 6 9 11 20 11 14 0 20 6 19 23 0 12 -3 16 -6
10 -2 -7 -9 -13 -15 -13 -6 0 -3 9 8 21 16 18 19 37 19 115 0 93 -2 106 -10
82z m-38 -150 c-3 -7 -5 -2 -5 12 0 14 2 19 5 13 2 -7 2 -19 0 -25z m30 -20
c-3 -8 -6 -5 -6 6 -1 11 2 17 5 13 3 -3 4 -12 1 -19z m-30 -20 c-3 -8 -6 -5
-6 6 -1 11 2 17 5 13 3 -3 4 -12 1 -19z m-178 -20 c0 -13 -4 -43 -9 -68 -7
-42 -8 -41 -6 22 0 38 4 68 9 68 4 0 7 -10 6 -22z m-28 -25 c-12 -20 -14 -14
-5 12 4 9 9 14 11 11 3 -2 0 -13 -6 -23z m-4 -125 c-2 -13 -4 -3 -4 22 0 25 2
35 4 23 2 -13 2 -33 0 -45z m30 -10 c-3 -8 -6 -5 -6 6 -1 11 2 17 5 13 3 -3 4
-12 1 -19z m-53 -105 c-13 -45 -14 -46 -8 -8 4 22 6 56 6 75 0 34 0 34 8 8 5
-18 3 -45 -6 -75z m33 65 c-3 -8 -6 -5 -6 6 -1 11 2 17 5 13 3 -3 4 -12 1 -19z
m3 -75 c0 -5 -5 -15 -10 -23 -8 -12 -10 -11 -10 8 0 12 5 22 10 22 6 0 10 -3
10 -7z m17 -25 c-3 -8 -6 -5 -6 6 -1 11 2 17 5 13 3 -3 4 -12 1 -19z m120
-110 c-3 -8 -6 -5 -6 6 -1 11 2 17 5 13 3 -3 4 -12 1 -19z m-210 -50 c-3 -8
-6 -5 -6 6 -1 11 2 17 5 13 3 -3 4 -12 1 -19z m223 -48 c0 -5 -4 -10 -10 -10
-5 0 -10 5 -10 10 0 6 5 10 10 10 6 0 10 -4 10 -10z m-30 -22 c0 -19 -2 -20
-10 -8 -13 19 -13 30 0 30 6 0 10 -10 10 -22z m-195 -37 c-4 -17 -11 -28 -16
-25 -6 3 -8 -15 -5 -48 5 -49 5 -50 -4 -13 -10 44 -4 98 11 89 5 -3 9 5 9 17
0 12 3 20 6 16 3 -3 3 -19 -1 -36z m6 -163 c-3 -21 -6 -26 -9 -15 -3 17 3 47
11 47 2 0 1 -15 -2 -32z m-24 0 c-3 -8 -6 -5 -6 6 -1 11 2 17 5 13 3 -3 4 -12
1 -19z m132 -238 c0 -9 -4 -8 -9 5 -5 11 -9 27 -9 35 0 9 4 8 9 -5 5 -11 9
-27 9 -35z m31 19 c0 -6 -4 -7 -10 -4 -5 3 -10 11 -10 16 0 6 5 7 10 4 6 -3
10 -11 10 -16z m-223 -101 c-2 -13 -4 -5 -4 17 -1 22 1 32 4 23 2 -10 2 -28 0
-40z m188 -8 c3 -5 1 -10 -4 -10 -6 0 -11 5 -11 10 0 6 2 10 4 10 3 0 8 -4 11
-10z m-207 -81 c-3 -20 -5 -19 -9 9 -3 20 -2 29 4 23 5 -5 7 -19 5 -32z m25
26 c-3 -9 -8 -14 -10 -11 -3 3 -2 9 2 15 9 16 15 13 8 -4z m-33 -70 c0 -5 -5
-3 -10 5 -5 8 -10 20 -10 25 0 6 5 3 10 -5 5 -8 10 -19 10 -25z m30 -16 c0
-22 -4 -38 -8 -35 -8 5 -4 76 4 76 2 0 4 -18 4 -41z m-43 -31 c-3 -7 -5 -2 -5
12 0 14 2 19 5 13 2 -7 2 -19 0 -25z m20 -30 c-3 -8 -6 -5 -6 6 -1 11 2 17 5
13 3 -3 4 -12 1 -19z m54 -81 c-10 -9 -11 -8 -5 6 3 10 9 15 12 12 3 -3 0 -11
-7 -18z m-98 -42 c-3 -9 -8 -14 -10 -11 -3 3 -2 9 2 15 9 16 15 13 8 -4z m24
-17 c-3 -8 -6 -5 -6 6 -1 11 2 17 5 13 3 -3 4 -12 1 -19z m-40 -30 c-3 -8 -6
-5 -6 6 -1 11 2 17 5 13 3 -3 4 -12 1 -19z"/>
<path d="M2260 2456 c0 -2 7 -9 15 -16 13 -11 14 -10 9 4 -5 14 -24 23 -24 12z"/>
<path d="M2306 2447 c3 -10 9 -15 12 -12 3 3 0 11 -7 18 -10 9 -11 8 -5 -6z"/>
<path d="M2247 2429 c7 -7 15 -10 18 -7 3 3 -2 9 -12 12 -14 6 -15 5 -6 -5z"/>
<path d="M3851 2334 c0 -11 3 -14 6 -6 3 7 2 16 -1 19 -3 4 -6 -2 -5 -13z"/>
<path d="M3335 2329 c-6 -8 -4 -10 5 -4 10 6 12 4 6 -11 -6 -15 -5 -17 5 -6 9
9 10 15 2 23 -8 8 -13 7 -18 -2z"/>
<path d="M3370 2305 c0 -8 -5 -15 -11 -15 -6 0 -9 -7 -5 -15 3 -8 1 -15 -4
-15 -5 0 -11 -10 -13 -22 -4 -20 -4 -20 -6 -3 0 11 -12 34 -26 50 l-25 30 10
-28 c5 -16 10 -39 10 -53 0 -24 13 -30 44 -18 8 3 12 12 9 20 -3 9 0 12 9 9
22 -9 40 19 32 49 -7 28 -24 36 -24 11z m20 -35 c0 -5 -4 -10 -10 -10 -5 0
-10 5 -10 10 0 6 5 10 10 10 6 0 10 -4 10 -10z"/>
<path d="M3411 2304 c0 -11 3 -14 6 -6 3 7 2 16 -1 19 -3 4 -6 -2 -5 -13z"/>
<path d="M3320 2281 c0 -6 4 -13 10 -16 6 -3 7 1 4 9 -7 18 -14 21 -14 7z"/>
<path d="M4060 1862 l0 -299 135 -62 134 -61 175 0 174 0 97 45 c53 25 112 52
131 60 l33 14 3 213 c2 117 2 223 0 234 -2 17 -32 35 -140 83 l-136 62 -131
-59 -130 -60 -3 -191 -2 -191 -26 0 c-14 0 -38 7 -54 15 l-30 16 0 172 -1 172
-106 65 c-58 36 -110 67 -114 68 -5 2 -9 -130 -9 -296z m706 218 c49 -23 104
-48 122 -58 l32 -17 0 -213 0 -213 -37 -16 c-21 -8 -63 -26 -93 -40 -122 -56
-135 -57 -405 -44 -15 1 -21 8 -21 26 0 14 3 25 8 25 4 0 5 7 2 15 -4 8 -14
15 -24 15 -24 0 -130 41 -130 50 0 4 -9 10 -20 13 -19 5 -20 14 -20 186 0 100
-3 181 -8 181 -4 0 -15 17 -25 38 -9 20 -25 48 -34 62 l-18 25 25 -16 c14 -8
53 -32 88 -53 l62 -37 0 -173 0 -172 28 -16 c15 -8 49 -19 75 -22 42 -6 47
-10 42 -27 -4 -11 -1 -26 5 -34 15 -19 64 -19 79 -2 7 9 12 86 13 212 l3 198
40 23 c22 12 57 28 78 35 34 11 37 15 37 51 0 21 2 38 4 38 2 0 43 -18 92 -40z"/>
<path d="M4685 2020 c3 -5 -2 -10 -12 -10 -10 0 -14 -4 -8 -8 23 -16 13 -34
-30 -52 l-46 -20 3 -152 3 -153 26 0 c32 -1 62 -23 55 -41 -3 -7 -2 -16 3 -18
13 -8 147 60 155 79 8 23 7 308 -2 320 -10 15 -115 65 -136 65 -9 0 -14 -4
-11 -10z m13 -106 c20 -14 22 -23 22 -124 l0 -109 -30 -16 c-16 -8 -40 -15
-55 -15 l-25 0 0 128 c0 124 1 129 23 140 31 15 39 14 65 -4z"/>
<path d="M4391 1496 c6 -7 269 -9 275 -3 3 3 -59 6 -137 6 -79 1 -141 0 -138
-3z"/>
<path d="M2718 2038 c10 -10 77 -14 295 -19 256 -5 287 -8 341 -27 33 -12 61
-20 63 -18 5 5 -100 43 -157 57 -25 6 -160 13 -300 16 -214 4 -253 3 -242 -9z"/>
<path d="M2223 1875 c-3 -9 -3 -18 -1 -21 3 -3 8 4 11 16 6 23 -1 27 -10 5z"/>
<path d="M2246 1768 c3 -5 10 -6 15 -3 13 9 11 12 -6 12 -8 0 -12 -4 -9 -9z"/>
<path d="M2305 1730 c-4 -6 -11 -7 -17 -4 -7 4 -8 2 -4 -5 6 -9 11 -9 22 0 14
11 18 19 10 19 -3 0 -8 -5 -11 -10z"/>
<path d="M3420 1561 c0 -12 -4 -21 -10 -21 -5 0 -10 5 -10 10 0 19 -29 10 -35
-11 -6 -19 -13 -21 -55 -17 -27 3 -55 1 -62 -3 -9 -6 -6 -9 10 -9 12 0 22 -3
22 -7 0 -9 -48 -33 -65 -33 -12 0 -40 41 -37 53 1 5 -2 6 -7 3 -5 -3 -22 1
-37 9 -16 8 -38 15 -48 15 -14 0 -11 -5 14 -22 52 -36 73 -71 73 -121 -1 -56
-22 -97 -70 -136 -42 -35 -41 -38 8 -16 49 21 63 35 88 84 12 23 25 40 29 37
3 -4 0 -12 -6 -18 -7 -7 -11 -21 -11 -33 1 -16 2 -17 6 -2 2 9 9 17 14 17 6 0
7 -9 4 -20 -3 -11 -2 -20 3 -20 13 0 24 43 12 50 -5 3 -5 29 0 60 l9 55 -3
-52 c-2 -29 0 -53 4 -53 4 0 10 -9 13 -20 4 -16 14 -20 45 -20 26 0 42 -5 45
-14 4 -11 1 -13 -10 -9 -10 4 -14 2 -12 -6 3 -7 8 -12 12 -12 4 1 21 1 37 1
23 0 30 4 30 20 0 11 6 23 14 26 8 3 14 15 15 27 2 27 0 163 -2 196 -2 30 -27
41 -27 12z m-180 -111 c0 -5 -4 -10 -9 -10 -6 0 -13 5 -16 10 -3 6 1 10 9 10
9 0 16 -4 16 -10z"/>
<path d="M4275 1370 c-33 -16 -95 -46 -137 -66 l-78 -36 0 -300 c0 -165 4
-298 8 -296 4 2 56 32 114 68 l107 65 1 176 0 176 25 11 c21 10 32 9 55 -3
l30 -15 2 -240 3 -239 100 63 100 63 3 179 3 179 25 12 c22 10 32 9 55 -3 l29
-14 2 -239 3 -240 95 60 c52 33 101 64 108 68 10 5 13 60 13 236 0 125 -4 232
-8 236 -4 4 -66 35 -137 67 l-130 60 -74 -34 c-41 -19 -81 -34 -89 -34 -8 0
-48 16 -90 35 -42 19 -76 35 -77 34 -1 0 -28 -14 -61 -29z m125 -26 c22 -9 40
-20 40 -26 0 -5 4 -7 9 -4 17 11 61 -19 61 -42 0 -35 22 -36 93 -5 62 27 64
29 61 61 -5 41 4 41 97 -1 41 -19 93 -42 117 -52 l42 -19 0 -218 c0 -120 -4
-218 -9 -218 -4 0 -25 -11 -45 -25 -21 -14 -41 -23 -46 -20 -5 3 -12 0 -16 -6
-5 -8 -2 -10 7 -5 8 4 5 0 -5 -8 -38 -31 -48 -18 -21 27 53 89 55 98 55 259
-1 174 -2 177 -83 216 -63 29 -74 28 -81 -12 -5 -26 -14 -37 -46 -51 l-40 -18
-2 -180 c-3 -166 -4 -181 -22 -191 -11 -6 -38 -23 -59 -38 -22 -16 -46 -28
-53 -28 -13 0 -9 10 43 103 9 15 13 77 13 198 l0 176 -42 21 c-24 11 -59 26
-80 33 -28 9 -37 19 -40 39 -4 26 0 50 8 50 2 0 22 -7 44 -16z m-50 -95 c0
-23 -8 -34 -40 -54 l-40 -25 0 -170 0 -170 -47 -29 c-27 -16 -63 -39 -82 -51
-42 -26 -49 -20 -22 18 12 17 21 34 21 39 0 4 9 19 20 33 18 22 20 42 20 191
0 116 4 170 13 182 15 22 128 76 145 69 6 -2 12 -17 12 -33z"/>
<path d="M1876 1349 c-17 -85 6 -206 56 -303 47 -89 164 -202 258 -248 143
-71 272 -85 640 -70 259 11 309 21 443 88 84 43 88 53 5 14 -130 -61 -189 -69
-506 -71 -307 -2 -333 1 -454 53 -145 62 -275 221 -307 376 -13 62 -15 149 -3
156 5 3 7 -25 5 -62 -1 -37 1 -62 5 -55 4 6 7 -6 7 -27 0 -22 6 -45 13 -52 10
-10 11 -5 7 22 -4 26 -3 30 4 15 l9 -20 4 20 c3 11 3 4 1 -15 -2 -24 -1 -31 6
-21 8 13 39 13 131 -2 14 -2 17 -2 8 0 -27 7 -22 23 7 23 14 0 25 -4 25 -10 0
-5 5 -10 11 -10 8 0 8 5 -1 15 -7 8 -18 15 -25 15 -12 0 -51 33 -127 106 -24
24 -38 31 -41 22 -3 -7 -6 -4 -6 7 -1 11 -8 31 -17 43 -13 19 -24 22 -83 22
l-68 0 -7 -31z m207 -69 c3 -11 1 -18 -4 -14 -5 3 -9 12 -9 20 0 20 7 17 13
-6z m-26 -47 c-3 -10 -5 -2 -5 17 0 19 2 27 5 18 2 -10 2 -26 0 -35z m118 -53
c3 -5 1 -10 -4 -10 -6 0 -11 5 -11 10 0 6 2 10 4 10 3 0 8 -4 11 -10z"/>
<path d="M3261 1314 c0 -11 3 -14 6 -6 3 7 2 16 -1 19 -3 4 -6 -2 -5 -13z"/>
<path d="M3370 1260 c0 -5 6 -10 14 -10 8 0 18 5 21 10 3 6 -3 10 -14 10 -12
0 -21 -4 -21 -10z"/>
<path d="M3368 1233 c7 -3 16 -2 19 1 4 3 -2 6 -13 5 -11 0 -14 -3 -6 -6z"/>
<path d="M2047 1134 c-9 -15 31 -96 43 -89 6 4 10 8 10 11 0 3 -4 3 -9 -1 -12
-7 -25 31 -16 45 3 5 24 10 46 10 28 0 39 4 39 15 0 11 -12 15 -45 15 -40 0
-45 -3 -46 -22 -1 -22 -1 -22 -8 2 -4 14 -10 20 -14 14z"/>
<path d="M2110 1040 c-9 -17 -9 -25 1 -34 9 -8 10 -8 5 2 -4 7 -2 20 5 28 6 8
9 17 6 20 -3 3 -11 -4 -17 -16z"/>
<path d="M2140 1039 c-6 -11 -9 -25 -6 -32 2 -7 5 -3 5 8 1 16 3 17 10 6 7
-10 9 -7 8 12 -2 32 -3 33 -17 6z"/>
<path d="M2120 986 c0 -2 8 -10 18 -17 15 -13 16 -12 3 4 -13 16 -21 21 -21
13z"/>
<path d="M3464 948 l-19 -23 23 19 c21 18 27 26 19 26 -2 0 -12 -10 -23 -22z"/>
<path d="M3419 913 c-13 -16 -12 -17 4 -4 9 7 17 15 17 17 0 8 -8 3 -21 -13z"/>
<path d="M1935 515 l-61 -35 -28 -187 c-16 -104 -29 -191 -30 -196 0 -4 75 -8
168 -8 l169 -1 51 51 51 51 -153 0 -152 0 5 23 c3 12 14 83 25 157 11 74 22
145 25 158 7 29 1 28 -70 -13z m21 -174 c-14 -88 -26 -163 -26 -166 0 -3 62
-5 138 -5 l137 -1 -37 -34 -37 -34 -147 0 -147 0 7 47 c3 26 16 109 27 184
l22 138 41 23 c22 13 42 19 44 15 2 -4 -8 -79 -22 -167z"/>
<path d="M60 475 c0 -3 15 -26 33 -50 30 -41 35 -44 80 -45 29 0 47 -4 47 -12
0 -6 -12 -85 -26 -175 -15 -90 -24 -166 -21 -169 6 -6 114 53 123 68 3 5 16
71 28 146 l21 137 51 3 c46 3 55 8 99 52 l49 50 -242 0 c-133 0 -242 -2 -242
-5z m430 -20 c0 -2 -12 -16 -27 -30 -22 -20 -38 -25 -80 -25 -59 0 -52 14 -78
-160 -9 -58 -19 -114 -24 -125 -5 -11 -27 -31 -51 -44 l-42 -23 6 28 c12 60
46 280 46 302 0 20 -5 22 -51 22 -40 0 -55 5 -70 23 -10 12 -18 25 -19 30 0 4
88 7 195 7 107 0 195 -2 195 -5z"/>
<path d="M540 435 c-44 -44 -46 -49 -62 -148 l-16 -102 31 -47 32 -48 153 0
153 0 45 43 c45 42 45 43 61 150 l16 107 -30 43 -31 42 -154 3 -153 2 -45 -45z
m365 -11 l27 -36 -13 -96 c-12 -96 -13 -98 -59 -145 l-47 -47 -135 0 -135 0
-30 43 -30 42 14 95 c14 89 17 97 56 138 l41 42 142 0 142 0 27 -36z"/>
<path d="M595 368 c-3 -18 -12 -70 -19 -115 l-13 -83 127 0 127 0 17 108 c9
59 16 110 16 115 0 4 -56 7 -125 7 l-124 0 -6 -32z m231 -20 c-3 -18 -10 -60
-16 -92 -5 -33 -10 -61 -10 -63 0 -2 -47 -3 -105 -3 -91 0 -105 2 -105 17 0
19 19 142 25 161 3 8 34 12 110 12 l106 0 -5 -32z"/>
<path d="M966 430 c35 -49 37 -50 86 -50 49 0 50 0 44 -27 -3 -16 -15 -89 -26
-163 -12 -74 -24 -146 -27 -159 l-6 -25 36 22 c21 12 52 31 70 42 34 20 34 20
57 165 l22 145 52 0 c49 0 55 3 101 50 l49 50 -247 0 -247 0 36 -50z m379 0
c-25 -26 -36 -30 -85 -30 l-56 0 -19 -127 c-10 -71 -21 -138 -24 -151 -6 -21
-91 -83 -91 -65 0 4 11 80 25 167 14 88 25 163 25 168 0 4 -24 8 -54 8 -49 0
-57 3 -76 30 l-21 30 202 0 203 0 -29 -30z"/>
<path d="M1418 433 l-47 -48 -27 -177 c-15 -98 -25 -180 -22 -183 3 -3 32 9
64 28 57 31 59 34 68 85 l10 52 93 0 94 0 -3 -52 -3 -53 55 3 c30 2 56 5 57 6
2 1 13 69 26 150 l24 147 -34 45 -34 44 -137 0 -138 0 -46 -47z m340 -12 l29
-39 -23 -139 c-13 -76 -23 -139 -24 -140 0 -2 -18 -3 -41 -3 l-40 0 6 55 7 56
-113 -3 c-92 -2 -114 -6 -116 -18 -10 -82 -14 -89 -56 -114 -22 -14 -43 -23
-45 -22 -2 2 8 78 23 168 l26 163 42 37 42 37 127 1 128 0 28 -39z"/>
<path d="M1476 383 c-2 -10 -8 -37 -11 -60 l-7 -43 115 0 114 0 7 46 c10 79
17 74 -103 74 -96 0 -110 -2 -115 -17z m204 -20 c0 -10 -3 -28 -6 -40 -6 -22
-11 -23 -101 -23 -83 0 -94 2 -89 16 3 9 6 27 6 40 0 24 1 24 95 24 84 0 95
-2 95 -17z"/>
<path d="M2630 438 c-69 -85 -66 -73 -35 -138 l29 -60 132 0 c103 0 133 -3
137 -14 11 -29 -17 -36 -144 -36 l-127 0 -51 -46 c-28 -26 -51 -49 -51 -53 0
-4 246 -6 402 -1 9 0 39 27 67 60 l50 61 -32 59 -32 60 -131 0 c-103 0 -133 3
-137 14 -11 29 17 36 148 36 l131 0 49 50 49 50 -210 0 -210 0 -34 -42z m384
22 c18 0 16 -3 -9 -30 l-29 -30 -131 0 c-119 0 -134 -2 -150 -20 -16 -18 -17
-23 -5 -45 13 -25 15 -25 145 -25 l132 0 23 -50 c26 -56 29 -48 -44 -128 l-30
-33 -173 1 c-95 1 -173 4 -173 8 0 3 12 19 27 34 27 28 27 28 157 28 106 0
133 3 148 17 10 9 18 22 18 28 0 30 -30 37 -155 36 l-125 -2 -26 55 -27 54 45
54 46 53 159 -2 c87 -1 167 -3 177 -3z"/>
<path d="M3117 458 c-14 -59 -69 -429 -65 -434 3 -2 31 10 63 28 60 34 67 45
80 121 l6 37 117 0 118 0 57 69 c31 38 57 73 57 77 0 4 -12 34 -27 66 l-28 58
-186 0 c-186 0 -187 0 -192 -22z m388 -49 c29 -56 32 -45 -39 -131 l-39 -48
-123 0 -122 0 -7 -52 c-10 -69 -15 -79 -65 -107 -39 -21 -42 -22 -37 -5 3 11
18 103 34 207 l28 187 172 0 173 0 25 -51z"/>
<path d="M3206 378 c-3 -13 -6 -35 -6 -50 l0 -28 102 0 c90 0 104 2 124 21 22
20 22 24 8 50 l-15 29 -103 0 c-99 0 -104 -1 -110 -22z m209 -8 c3 -6 3 -19 0
-30 -6 -18 -15 -20 -101 -20 -92 0 -94 1 -94 23 0 13 3 27 7 30 10 11 181 8
188 -3z"/>
<path d="M3619 433 c-45 -47 -47 -51 -63 -151 l-16 -103 32 -45 31 -44 116 -1
c64 0 125 -2 136 -4 27 -5 76 20 113 58 28 28 33 44 48 139 l16 107 -33 45
-32 46 -152 0 -151 0 -45 -47z m367 -12 l26 -39 -16 -99 c-15 -95 -17 -99 -60
-140 l-44 -42 -137 2 -137 2 -29 40 -29 40 16 100 c16 96 17 100 58 137 l41
37 142 1 143 0 26 -39z"/>
<path d="M3675 378 c-2 -13 -9 -52 -15 -88 -6 -36 -13 -77 -16 -93 l-6 -27
130 0 129 0 12 87 c7 48 15 100 18 115 l6 28 -127 0 c-122 0 -126 -1 -131 -22z
m231 -20 c-3 -13 -10 -56 -16 -95 l-12 -73 -107 0 -107 0 15 95 15 95 108 0
c107 0 108 0 104 -22z"/>
<path d="M4097 458 c-15 -64 -69 -429 -64 -434 3 -3 31 9 63 28 59 34 66 46
79 121 l6 38 97 -3 97 -3 -2 -60 -1 -60 59 3 c63 4 62 3 74 77 5 33 2 46 -14
67 -27 34 -27 41 9 81 17 19 30 40 30 46 0 6 -12 35 -27 66 l-27 55 -187 0
c-186 0 -187 0 -192 -22z m388 -49 c28 -55 29 -53 -23 -111 l-25 -27 27 -35
c24 -32 26 -40 19 -83 -8 -48 -9 -48 -48 -48 l-40 0 3 42 c6 77 -3 83 -127 83
l-109 0 -7 -52 c-9 -69 -15 -79 -65 -107 l-41 -23 5 24 c3 12 17 100 31 193
15 94 28 176 30 183 3 9 47 12 175 12 l170 0 25 -51z"/>
<path d="M4190 393 c-1 -4 -5 -27 -9 -50 l-8 -43 107 0 c98 0 108 2 128 23 18
19 20 26 9 47 -12 24 -17 25 -120 28 -59 1 -107 -1 -107 -5z m205 -23 c3 -6 3
-19 0 -30 -6 -18 -15 -20 -101 -20 -92 0 -94 1 -94 23 0 13 3 27 7 30 10 11
181 8 188 -3z"/>
<path d="M4520 475 c0 -3 15 -26 33 -50 30 -42 35 -44 81 -45 47 0 48 -1 43
-27 -17 -91 -49 -325 -44 -329 3 -4 33 10 65 30 67 41 60 23 93 244 l12 82 52
0 c48 0 54 3 100 50 l49 50 -242 0 c-133 0 -242 -2 -242 -5z m404 -46 c-24
-25 -35 -29 -80 -29 -62 0 -56 10 -80 -150 -9 -63 -20 -124 -24 -135 -4 -11
-26 -31 -49 -43 l-42 -24 5 34 c16 93 46 290 46 303 0 12 -12 15 -54 15 -46 0
-56 4 -70 25 -9 13 -16 27 -16 29 0 6 335 13 368 7 l23 -4 -27 -28z"/>
</g>
</svg>
